<svg width="228" height="89" viewBox="0 0 228 89" fill="none" xmlns="http://www.w3.org/2000/svg">
<g clip-path="url(#clip0_4587_1633)">
<path d="M26.864 55.0858C24.4 55.0858 22.464 54.6538 21.056 53.7898C19.68 52.8938 18.704 51.6618 18.128 50.0938C17.584 48.4938 17.312 46.6058 17.312 44.4298L17.312 22.8298L23.552 21.8218L23.552 29.3578L32.432 29.3578L32.432 34.5898L23.552 34.5898L23.552 44.4298C23.552 45.6138 23.68 46.6058 23.936 47.4058C24.224 48.1738 24.672 48.7498 25.28 49.1338C25.92 49.5178 26.768 49.7098 27.824 49.7098C28.688 49.7098 29.52 49.6298 30.32 49.4698C31.152 49.2778 31.888 49.0538 32.528 48.7978L33.44 53.7418C32.672 54.0618 31.76 54.3658 30.704 54.6538C29.648 54.9418 28.368 55.0858 26.864 55.0858ZM47.3619 55.1338C44.3539 55.1338 41.8899 54.5738 39.9699 53.4538C38.0499 52.3018 36.6099 50.7338 35.6499 48.7498C34.7219 46.7658 34.2579 44.5418 34.2579 42.0778C34.2579 39.1018 34.8339 36.6378 35.9859 34.6858C37.1379 32.7018 38.6099 31.2138 40.4019 30.2218C42.1939 29.1978 44.0979 28.6858 46.1139 28.6858C48.4179 28.6858 50.4019 29.1658 52.0659 30.1258C53.7619 31.0858 55.0579 32.5098 55.9539 34.3978C56.8819 36.2858 57.3459 38.6538 57.3459 41.5018C57.3459 41.8538 57.3299 42.2538 57.2979 42.7018C57.2659 43.1498 57.2339 43.5498 57.2019 43.9018L40.7379 43.9018C40.8659 45.7258 41.5539 47.1498 42.8019 48.1738C44.0819 49.1978 45.8579 49.7098 48.1299 49.7098C49.5379 49.7098 50.8339 49.5818 52.0179 49.3258C53.2339 49.0698 54.1939 48.7818 54.8979 48.4618L55.8099 53.5978C55.1059 53.9498 53.9539 54.2858 52.3539 54.6058C50.7859 54.9578 49.1219 55.1338 47.3619 55.1338ZM40.7379 39.4858L51.2499 39.4858C51.2179 38.4938 51.0099 37.5818 50.6259 36.7498C50.2739 35.8858 49.7299 35.1978 48.9939 34.6858C48.2899 34.1738 47.3459 33.9178 46.1619 33.9178C45.0099 33.9178 44.0499 34.1898 43.2819 34.7338C42.5459 35.2458 41.9699 35.9338 41.5539 36.7978C41.1379 37.6298 40.8659 38.5258 40.7379 39.4858ZM70.0261 55.0378C67.9461 55.0378 66.1221 54.7818 64.5541 54.2698C62.9861 53.7258 61.7541 52.8618 60.8581 51.6778C59.9941 50.4618 59.5621 48.8458 59.5621 46.8298C59.5621 44.9098 60.0421 43.3738 61.0021 42.2218C61.9941 41.0698 63.3061 40.2538 64.9381 39.7738C66.5701 39.2618 68.3141 39.0058 70.1701 39.0058C71.0981 39.0058 71.9461 39.0538 72.7141 39.1498C73.5141 39.2458 74.1061 39.3578 74.4901 39.4858L74.4901 38.6218C74.4901 37.7258 74.3301 36.9258 74.0101 36.2218C73.7221 35.5178 73.1941 34.9738 72.4261 34.5898C71.6901 34.1738 70.6661 33.9658 69.3541 33.9658C67.9781 33.9658 66.7301 34.0618 65.6101 34.2538C64.4901 34.4458 63.5621 34.6858 62.8261 34.9738L62.0101 29.8858C62.7781 29.6298 63.8821 29.3738 65.3221 29.1178C66.7941 28.8298 68.3621 28.6858 70.0261 28.6858C72.6821 28.6858 74.7781 29.1018 76.3141 29.9338C77.8501 30.7658 78.9381 31.9338 79.5781 33.4378C80.2181 34.9418 80.5381 36.7178 80.5381 38.7658L80.5381 53.8378C79.6101 54.0298 78.2341 54.2698 76.4101 54.5578C74.6181 54.8778 72.4901 55.0378 70.0261 55.0378ZM70.5061 50.1418C71.3381 50.1418 72.1061 50.1258 72.8101 50.0938C73.5141 50.0298 74.0741 49.9498 74.4901 49.8538L74.4901 43.7098C74.2021 43.6138 73.7381 43.5338 73.0981 43.4698C72.4901 43.3738 71.8501 43.3258 71.1781 43.3258C70.2501 43.3258 69.3701 43.4218 68.5381 43.6138C67.7381 43.7738 67.0821 44.0938 66.5701 44.5738C66.0581 45.0538 65.8021 45.7578 65.8021 46.6858C65.8021 47.9658 66.2181 48.8618 67.0501 49.3738C67.9141 49.8858 69.0661 50.1418 70.5061 50.1418ZM85.4326 54.5098L85.4326 30.2218C86.6166 29.9018 88.1046 29.5818 89.8966 29.2618C91.7206 28.9418 93.6086 28.7818 95.5606 28.7818C97.3206 28.7818 98.7606 29.0218 99.8806 29.5018C101.033 29.9498 101.977 30.5258 102.713 31.2298C103.321 30.7818 104.025 30.3818 104.825 30.0298C105.625 29.6778 106.489 29.3898 107.417 29.1658C108.345 28.9098 109.257 28.7818 110.153 28.7818C112.809 28.7818 114.841 29.2778 116.249 30.2698C117.689 31.2298 118.665 32.5738 119.177 34.3018C119.721 36.0298 119.993 38.0458 119.993 40.3498L119.993 54.5098L113.753 54.5098L113.753 41.2138C113.753 39.5498 113.609 38.2058 113.321 37.1818C113.065 36.1258 112.617 35.3578 111.977 34.8778C111.337 34.3978 110.457 34.1578 109.337 34.1578C108.857 34.1578 108.345 34.2218 107.801 34.3498C107.289 34.4778 106.809 34.6538 106.361 34.8778C105.913 35.0698 105.529 35.2618 105.209 35.4538C105.465 36.2218 105.625 37.0378 105.689 37.9018C105.785 38.7658 105.833 39.6778 105.833 40.6378L105.833 54.5098L99.5926 54.5098L99.5926 41.2138C99.5926 39.5498 99.4486 38.2058 99.1606 37.1818C98.9046 36.1258 98.4566 35.3578 97.8166 34.8778C97.1766 34.3978 96.2806 34.1578 95.1286 34.1578C94.6806 34.1578 94.2326 34.1738 93.7846 34.2058C93.3686 34.2378 92.9846 34.2858 92.6326 34.3498C92.2806 34.3818 91.9606 34.4298 91.6726 34.4938L91.6726 54.5098L85.4326 54.5098ZM134.119 54.9898C131.687 54.9258 129.799 54.5738 128.455 53.9338C127.111 53.2938 126.167 52.3658 125.623 51.1498C125.111 49.9338 124.855 48.4618 124.855 46.7338L124.855 18.2698L131.143 17.2618L131.143 45.5818C131.143 46.9258 131.383 47.9338 131.863 48.6058C132.343 49.2458 133.399 49.6458 135.031 49.8058L134.119 54.9898ZM149.323 55.1338C146.315 55.1338 143.851 54.5738 141.931 53.4538C140.011 52.3018 138.571 50.7338 137.611 48.7498C136.683 46.7658 136.219 44.5418 136.219 42.0778C136.219 39.1018 136.795 36.6378 137.947 34.6858C139.099 32.7018 140.571 31.2138 142.363 30.2218C144.155 29.1978 146.059 28.6858 148.075 28.6858C150.379 28.6858 152.363 29.1658 154.027 30.1258C155.723 31.0858 157.019 32.5098 157.915 34.3978C158.843 36.2858 159.307 38.6538 159.307 41.5018C159.307 41.8538 159.291 42.2538 159.259 42.7018C159.227 43.1498 159.195 43.5498 159.163 43.9018L142.699 43.9018C142.827 45.7258 143.515 47.1498 144.763 48.1738C146.043 49.1978 147.819 49.7098 150.091 49.7098C151.499 49.7098 152.795 49.5818 153.979 49.3258C155.195 49.0698 156.155 48.7818 156.859 48.4618L157.771 53.5978C157.067 53.9498 155.915 54.2858 154.315 54.6058C152.747 54.9578 151.083 55.1338 149.323 55.1338ZM142.699 39.4858L153.211 39.4858C153.179 38.4938 152.971 37.5818 152.587 36.7498C152.235 35.8858 151.691 35.1978 150.955 34.6858C150.251 34.1738 149.307 33.9178 148.123 33.9178C146.971 33.9178 146.011 34.1898 145.243 34.7338C144.507 35.2458 143.931 35.9338 143.515 36.7978C143.099 37.6298 142.827 38.5258 142.699 39.4858ZM171.987 55.0378C169.907 55.0378 168.083 54.7818 166.515 54.2698C164.947 53.7258 163.715 52.8618 162.819 51.6778C161.955 50.4618 161.523 48.8458 161.523 46.8298C161.523 44.9098 162.003 43.3738 162.963 42.2218C163.955 41.0698 165.267 40.2538 166.899 39.7738C168.531 39.2618 170.275 39.0058 172.131 39.0058C173.059 39.0058 173.907 39.0538 174.675 39.1498C175.475 39.2458 176.067 39.3578 176.451 39.4858L176.451 38.6218C176.451 37.7258 176.291 36.9258 175.971 36.2218C175.683 35.5178 175.155 34.9738 174.387 34.5898C173.651 34.1738 172.627 33.9658 171.315 33.9658C169.939 33.9658 168.691 34.0618 167.571 34.2538C166.451 34.4458 165.523 34.6858 164.787 34.9738L163.971 29.8858C164.739 29.6298 165.843 29.3738 167.283 29.1178C168.755 28.8298 170.323 28.6858 171.987 28.6858C174.643 28.6858 176.739 29.1018 178.275 29.9338C179.811 30.7658 180.899 31.9338 181.539 33.4378C182.179 34.9418 182.499 36.7178 182.499 38.7658L182.499 53.8378C181.571 54.0298 180.195 54.2698 178.371 54.5578C176.579 54.8778 174.451 55.0378 171.987 55.0378ZM172.467 50.1418C173.299 50.1418 174.067 50.1258 174.771 50.0938C175.475 50.0298 176.035 49.9498 176.451 49.8538L176.451 43.7098C176.163 43.6138 175.699 43.5338 175.059 43.4698C174.451 43.3738 173.811 43.3258 173.139 43.3258C172.211 43.3258 171.331 43.4218 170.499 43.6138C169.699 43.7738 169.043 44.0938 168.531 44.5738C168.019 45.0538 167.763 45.7578 167.763 46.6858C167.763 47.9658 168.179 48.8618 169.011 49.3738C169.875 49.8858 171.027 50.1418 172.467 50.1418ZM199.057 55.1338C196.369 55.1338 194.049 54.6058 192.097 53.5498C190.177 52.4938 188.689 50.9898 187.633 49.0378C186.609 47.0538 186.097 44.7178 186.097 42.0298C186.097 39.3418 186.545 37.0058 187.441 35.0218C188.337 33.0378 189.617 31.5178 191.281 30.4618C192.977 29.3738 195.009 28.8298 197.377 28.8298C198.497 28.8298 199.489 28.9578 200.353 29.2138C201.249 29.4698 202.081 29.7738 202.849 30.1258L202.849 18.2698L209.089 17.2618L209.089 53.6938C208.321 53.9498 207.377 54.1898 206.257 54.4138C205.137 54.6058 203.953 54.7658 202.705 54.8938C201.489 55.0538 200.273 55.1338 199.057 55.1338ZM199.105 49.7578C199.937 49.7578 200.673 49.7258 201.313 49.6618C201.953 49.5658 202.465 49.4858 202.849 49.4218L202.849 35.4538C202.369 35.1018 201.713 34.7978 200.881 34.5418C200.081 34.2858 199.217 34.1578 198.289 34.1578C197.297 34.1578 196.433 34.3338 195.697 34.6858C194.993 35.0058 194.401 35.5018 193.921 36.1738C193.441 36.8138 193.089 37.6138 192.865 38.5738C192.641 39.5018 192.529 40.5738 192.529 41.7898C192.529 43.4218 192.785 44.8298 193.297 46.0138C193.809 47.1978 194.561 48.1258 195.553 48.7978C196.545 49.4378 197.729 49.7578 199.105 49.7578Z" fill="#10A4FF"/>
<path d="M133.689 71.5098L132.645 71.5098C132.529 71.5098 132.429 71.4798 132.345 71.4198C132.265 71.3558 132.189 71.2638 132.117 71.1438L129.843 67.9938C129.739 67.8378 129.627 67.7298 129.507 67.6698C129.387 67.6058 129.223 67.5738 129.015 67.5738L127.983 67.5738L127.983 71.5098L126.825 71.5098L126.825 62.9118L127.983 62.9118L127.983 66.6798L128.877 66.6798C129.057 66.6798 129.209 66.6518 129.333 66.5958C129.461 66.5398 129.587 66.4298 129.711 66.2658L131.961 63.2418C132.021 63.1458 132.093 63.0678 132.177 63.0078C132.265 62.9438 132.367 62.9118 132.483 62.9118L133.461 62.9118L130.863 66.4458C130.667 66.7218 130.415 66.9118 130.107 67.0158C130.319 67.0718 130.497 67.1618 130.641 67.2858C130.789 67.4058 130.929 67.5738 131.061 67.7898L133.689 71.5098ZM142.421 67.2138C142.421 67.8578 142.319 68.4498 142.115 68.9898C141.911 69.5258 141.623 69.9878 141.251 70.3758C140.879 70.7638 140.431 71.0658 139.907 71.2818C139.387 71.4938 138.811 71.5998 138.179 71.5998C137.547 71.5998 136.971 71.4938 136.451 71.2818C135.931 71.0658 135.485 70.7638 135.113 70.3758C134.741 69.9878 134.453 69.5258 134.249 68.9898C134.045 68.4498 133.943 67.8578 133.943 67.2138C133.943 66.5698 134.045 65.9798 134.249 65.4438C134.453 64.9038 134.741 64.4398 135.113 64.0518C135.485 63.6598 135.931 63.3558 136.451 63.1398C136.971 62.9238 137.547 62.8158 138.179 62.8158C138.811 62.8158 139.387 62.9238 139.907 63.1398C140.431 63.3558 140.879 63.6598 141.251 64.0518C141.623 64.4398 141.911 64.9038 142.115 65.4438C142.319 65.9798 142.421 66.5698 142.421 67.2138ZM141.227 67.2138C141.227 66.6858 141.155 66.2118 141.011 65.7918C140.867 65.3718 140.663 65.0178 140.399 64.7298C140.135 64.4378 139.815 64.2138 139.439 64.0578C139.063 63.9018 138.643 63.8238 138.179 63.8238C137.719 63.8238 137.301 63.9018 136.925 64.0578C136.549 64.2138 136.227 64.4378 135.959 64.7298C135.695 65.0178 135.491 65.3718 135.347 65.7918C135.203 66.2118 135.131 66.6858 135.131 67.2138C135.131 67.7418 135.203 68.2158 135.347 68.6358C135.491 69.0518 135.695 69.4058 135.959 69.6978C136.227 69.9858 136.549 70.2078 136.925 70.3638C137.301 70.5158 137.719 70.5918 138.179 70.5918C138.643 70.5918 139.063 70.5158 139.439 70.3638C139.815 70.2078 140.135 69.9858 140.399 69.6978C140.663 69.4058 140.867 69.0518 141.011 68.6358C141.155 68.2158 141.227 67.7418 141.227 67.2138ZM151.052 62.9118L151.052 71.5098L149.888 71.5098L149.888 67.5978L145.25 67.5978L145.25 71.5098L144.086 71.5098L144.086 62.9118L145.25 62.9118L145.25 66.7458L149.888 66.7458L149.888 62.9118L151.052 62.9118ZM159.286 69.7338C159.35 69.7338 159.406 69.7598 159.454 69.8118L159.916 70.3098C159.564 70.7178 159.136 71.0358 158.632 71.2638C158.132 71.4918 157.526 71.6058 156.814 71.6058C156.198 71.6058 155.638 71.4998 155.134 71.2878C154.63 71.0718 154.2 70.7718 153.844 70.3878C153.488 69.9998 153.212 69.5358 153.016 68.9958C152.82 68.4558 152.722 67.8618 152.722 67.2138C152.722 66.5658 152.824 65.9718 153.028 65.4318C153.232 64.8918 153.518 64.4278 153.886 64.0398C154.258 63.6518 154.702 63.3518 155.218 63.1398C155.734 62.9238 156.304 62.8158 156.928 62.8158C157.54 62.8158 158.08 62.9138 158.548 63.1098C159.016 63.3058 159.428 63.5718 159.784 63.9078L159.4 64.4418C159.376 64.4818 159.344 64.5158 159.304 64.5438C159.268 64.5678 159.218 64.5798 159.154 64.5798C159.082 64.5798 158.994 64.5418 158.89 64.4658C158.786 64.3858 158.65 64.2978 158.482 64.2018C158.314 64.1058 158.104 64.0198 157.852 63.9438C157.6 63.8638 157.29 63.8238 156.922 63.8238C156.478 63.8238 156.072 63.9018 155.704 64.0578C155.336 64.2098 155.018 64.4318 154.75 64.7238C154.486 65.0158 154.28 65.3718 154.132 65.7918C153.984 66.2118 153.91 66.6858 153.91 67.2138C153.91 67.7498 153.986 68.2278 154.138 68.6478C154.294 69.0678 154.504 69.4238 154.768 69.7158C155.036 70.0038 155.35 70.2238 155.71 70.3758C156.074 70.5278 156.466 70.6038 156.886 70.6038C157.142 70.6038 157.372 70.5898 157.576 70.5618C157.784 70.5298 157.974 70.4818 158.146 70.4178C158.322 70.3538 158.484 70.2738 158.632 70.1778C158.784 70.0778 158.934 69.9598 159.082 69.8238C159.15 69.7638 159.218 69.7338 159.286 69.7338ZM165.82 68.3178L164.47 64.8198C164.43 64.7158 164.388 64.5958 164.344 64.4598C164.3 64.3198 164.258 64.1718 164.218 64.0158C164.134 64.3398 164.048 64.6098 163.96 64.8258L162.61 68.3178L165.82 68.3178ZM168.244 71.5098L167.344 71.5098C167.24 71.5098 167.156 71.4838 167.092 71.4318C167.028 71.3798 166.98 71.3138 166.948 71.2338L166.144 69.1578L162.286 69.1578L161.482 71.2338C161.458 71.3058 161.412 71.3698 161.344 71.4258C161.276 71.4818 161.19 71.5098 161.086 71.5098L160.192 71.5098L163.63 62.9118L164.806 62.9118L168.244 71.5098ZM176.026 71.5098L174.862 71.5098L174.862 63.8298L172.018 63.8298C171.962 64.9338 171.886 65.8918 171.79 66.7038C171.698 67.5158 171.584 68.2098 171.448 68.7858C171.316 69.3618 171.164 69.8318 170.992 70.1958C170.824 70.5558 170.638 70.8398 170.434 71.0478C170.234 71.2558 170.018 71.3978 169.786 71.4738C169.554 71.5498 169.308 71.5878 169.048 71.5878C168.832 71.5878 168.666 71.5678 168.55 71.5278C168.434 71.4918 168.376 71.4358 168.376 71.3598L168.376 70.6218L168.796 70.6218C168.956 70.6218 169.114 70.5918 169.27 70.5318C169.426 70.4678 169.576 70.3418 169.72 70.1538C169.864 69.9658 170 69.6978 170.128 69.3498C170.256 69.0018 170.372 68.5418 170.476 67.9698C170.58 67.3978 170.67 66.6998 170.746 65.8758C170.822 65.0478 170.88 64.0598 170.92 62.9118L176.026 62.9118L176.026 71.5098ZM184.037 63.8898L181.253 63.8898L181.253 71.5098L180.095 71.5098L180.095 63.8898L177.305 63.8898L177.305 62.9118L184.037 62.9118L184.037 63.8898ZM192.279 62.9118L192.279 71.5098L191.115 71.5098L191.115 65.4018C191.115 65.2298 191.119 65.0518 191.127 64.8678C191.135 64.6798 191.153 64.4818 191.181 64.2738C191.113 64.4538 191.041 64.6218 190.965 64.7778C190.889 64.9338 190.811 65.0698 190.731 65.1858L186.699 71.1438C186.643 71.2358 186.571 71.3198 186.483 71.3958C186.395 71.4718 186.293 71.5098 186.177 71.5098L185.313 71.5098L185.313 62.9118L186.477 62.9118L186.477 69.0258C186.477 69.1978 186.473 69.3778 186.465 69.5658C186.457 69.7498 186.439 69.9478 186.411 70.1598C186.479 69.9758 186.551 69.8058 186.627 69.6498C186.707 69.4938 186.785 69.3558 186.861 69.2358L190.893 63.2778C190.949 63.1858 191.021 63.1018 191.109 63.0258C191.197 62.9498 191.299 62.9118 191.415 62.9118L192.279 62.9118ZM201.443 62.9118L201.443 71.5098L200.279 71.5098L200.279 67.5978L195.641 67.5978L195.641 71.5098L194.477 71.5098L194.477 62.9118L195.641 62.9118L195.641 66.7458L200.279 66.7458L200.279 62.9118L201.443 62.9118ZM208.819 63.8298L204.805 63.8298L204.805 71.5098L203.641 71.5098L203.641 62.9118L208.819 62.9118L208.819 63.8298Z" fill="#545B5E"/>
</g>
<defs>
<clipPath id="clip0_4587_1633">
<rect width="228" height="89" fill="white"/>
</clipPath>
</defs>
</svg>
